HIERARCHY
ROOT SpineBase
{
  OFFSET 0.000000 0.000000 0.000000
  CHANNELS 6 Xposition Yposition Zposition Zrotation Xrotation Yrotation
  JOINT SpineMid
  {
    OFFSET -0.000000 32.351965 0.000000
    CHANNELS 3 Zrotation Xrotation Yrotation
    JOINT SpineShoulder
    {
      OFFSET 0.070993 23.978359 -0.819856
      CHANNELS 3 Zrotation Xrotation Yrotation
      JOINT Neck
      {
        OFFSET 0.006560 7.910300 -0.617007
        CHANNELS 3 Zrotation Xrotation Yrotation
        JOINT Head
        {
          OFFSET -5.268418 12.835488 3.606803
          CHANNELS 3 Zrotation Xrotation Yrotation
          End Site
          {
            OFFSET 0 0 0
          }
        }
      }
      JOINT ShoulderLeft
      {
        OFFSET -12.644841 -3.609244 15.003319
        CHANNELS 3 Zrotation Xrotation Yrotation
        JOINT ElbowLeft
        {
          OFFSET -2.275060 -27.766377 -0.020137
          CHANNELS 3 Zrotation Xrotation Yrotation
          JOINT WristLeft
          {
            OFFSET -0.268155 -24.435336 -11.027375
            CHANNELS 3 Zrotation Xrotation Yrotation
            JOINT HandLeft
            {
              OFFSET 1.227840 -4.180257 -3.092198
              CHANNELS 3 Zrotation Xrotation Yrotation
              JOINT HandTipLeft
              {
                OFFSET 0.915212 -5.371626 -1.692781
                CHANNELS 3 Zrotation Xrotation Yrotation
                End Site
                {
                  OFFSET 0 0 0
                }
              }
              JOINT ThumbLeft
              {
                OFFSET -2.569446 -2.419416 -2.346833
                CHANNELS 3 Zrotation Xrotation Yrotation
                End Site
                {
                  OFFSET 0 0 0
                }
              }
            }
          }
        }
      }
      JOINT ShoulderRight
      {
        OFFSET 12.568067 -2.580145 -11.161926
        CHANNELS 3 Zrotation Xrotation Yrotation
        JOINT ElbowRight
        {
          OFFSET 7.832786 -22.605477 -4.248563
          CHANNELS 3 Zrotation Xrotation Yrotation
          JOINT WristRight
          {
            OFFSET -7.951700 -21.797534 -4.968333
            CHANNELS 3 Zrotation Xrotation Yrotation
            JOINT HandRight
            {
              OFFSET -4.067407 -6.413559 -0.224135
              CHANNELS 3 Zrotation Xrotation Yrotation
              JOINT HandTipRight
              {
                OFFSET -3.086097 -6.631443 -0.197132
                CHANNELS 3 Zrotation Xrotation Yrotation
                End Site
                {
                  OFFSET 0 0 0
                }
              }
              JOINT ThumbRight
              {
                OFFSET -3.288320 2.374902 -1.224482
                CHANNELS 3 Zrotation Xrotation Yrotation
                End Site
                {
                  OFFSET 0 0 0
                }
              }
            }
          }
        }
      }
    }
  }
  JOINT HipLeft
  {
    OFFSET -6.107344 -0.322078 1.270522
    CHANNELS 3 Zrotation Xrotation Yrotation
    JOINT KneeLeft
    {
      OFFSET 6.235953 -34.490575 0.915663
      CHANNELS 3 Zrotation Xrotation Yrotation
      JOINT AnkleLeft
      {
        OFFSET 12.725066 -35.287552 3.150221
        CHANNELS 3 Zrotation Xrotation Yrotation
        JOINT FootLeft
        {
          OFFSET -3.489941 -6.284025 -3.261475
          CHANNELS 3 Zrotation Xrotation Yrotation
          End Site
          {
            OFFSET 0 0 0
          }
        }
      }
    }
  }
  JOINT HipRight
  {
    OFFSET 5.383314 1.724818 -8.903915
    CHANNELS 3 Zrotation Xrotation Yrotation
    JOINT KneeRight
    {
      OFFSET 6.834853 -31.164060 -5.398816
      CHANNELS 3 Zrotation Xrotation Yrotation
      JOINT AnkleRight
      {
        OFFSET 8.281023 -37.224996 6.779503
        CHANNELS 3 Zrotation Xrotation Yrotation
        JOINT FootRight
        {
          OFFSET -2.677201 -7.708670 0.233710
          CHANNELS 3 Zrotation Xrotation Yrotation
          End Site
          {
            OFFSET 0 0 0
          }
        }
      }
    }
  }
}
MOTION
Frames: 10
Frame Time: 0.033333
29.624249 80.302154 364.330758 -2.514695 -2.812311 32.477779 0.371370 -0.145002 -32.611351 0.150141 0.035229 -0.089865 -2.717205 -2.668284 -0.803806 0.000000 0.000000 0.000000 -2.563762 9.151158 0.047736 17.454904 34.387204 -7.887883 55.704644 -65.760216 23.168375 -134.067037 82.169105 126.318756 0.000000 0.000000 0.000000 0.000000 0.000000 0.000000 -5.286169 6.341069 3.353276 -21.177370 -5.902367 2.330194 -13.447682 -28.769727 2.885725 -6.812061 44.616896 -2.704418 0.000000 0.000000 0.000000 0.000000 0.000000 0.000000 -13.270820 6.035454 -32.874310 -4.685827 -0.408563 -2.561535 20.436458 8.895824 1.948461 0.000000 0.000000 0.000000 2.082700 0.797518 -32.565705 8.425046 1.411637 1.243926 -18.478380 56.663833 -16.746953 0.000000 0.000000 0.000000
27.546655 79.725589 364.777848 -2.454498 -2.613075 32.324607 0.381196 -0.113240 -32.449954 0.131639 0.051441 -0.087631 -1.644157 -2.455276 -0.924474 0.000000 0.000000 0.000000 -2.585874 12.635407 -0.129047 19.592572 32.503370 -8.302637 103.340417 -66.717533 57.228998 -168.522572 57.546586 142.675626 0.000000 0.000000 0.000000 0.000000 0.000000 0.000000 -5.055884 6.558238 3.440879 -21.945783 -5.399457 2.007781 -16.731974 -39.532961 3.825488 -10.582189 56.663458 1.432782 0.000000 0.000000 0.000000 0.000000 0.000000 0.000000 -14.472359 6.430631 -32.647055 -5.746440 -0.519381 -2.802291 19.786735 10.105806 3.343498 0.000000 0.000000 0.000000 3.471526 0.893322 -32.407668 8.720136 0.756627 1.675313 -19.795593 58.629483 -17.938184 0.000000 0.000000 0.000000
25.479393 79.146468 365.152509 -2.101753 -2.274529 32.539045 0.455823 -0.124405 -32.636711 0.141274 0.067481 -0.067468 -0.258522 -1.927103 -1.070505 0.000000 0.000000 0.000000 -2.426806 15.148702 -0.391392 19.968722 30.443131 -8.047073 121.083135 -66.446118 74.893685 -179.196980 52.581119 151.086582 0.000000 0.000000 0.000000 0.000000 0.000000 0.000000 -4.890720 6.318652 3.271386 -24.026999 -4.648909 2.135419 -17.842176 -44.852520 3.283231 -11.396561 61.415444 3.186283 0.000000 0.000000 0.000000 0.000000 0.000000 0.000000 -16.379644 7.322141 -32.655757 -5.802026 -0.890385 -3.187838 19.985370 10.622133 4.440414 0.000000 0.000000 0.000000 4.181452 -0.474629 -32.986939 8.293708 1.554606 2.245535 -20.576611 60.380775 -19.206976 0.000000 0.000000 0.000000
23.204921 78.423699 365.654844 -1.685613 -1.866671 32.582243 0.423749 -0.106310 -32.652336 0.117565 0.064866 -0.051279 0.950567 -1.444743 -1.157335 0.000000 0.000000 0.000000 -0.959513 18.105345 -0.915630 17.315911 27.719692 -6.713926 133.071207 -59.252067 73.079257 -161.532007 57.067780 126.950812 0.000000 0.000000 0.000000 0.000000 0.000000 0.000000 -4.148959 5.762416 2.857756 -28.146745 -3.720400 2.843339 -13.523132 -47.967070 3.302360 -14.963630 62.737284 5.434868 0.000000 0.000000 0.000000 0.000000 0.000000 0.000000 -18.015512 7.983047 -32.522412 -6.948150 -1.441739 -3.746778 21.741959 12.873653 4.243118 0.000000 0.000000 0.000000 5.519708 -0.888435 -33.131604 8.006515 1.022885 2.778488 -21.004759 61.375628 -20.535917 0.000000 0.000000 0.000000
20.418360 77.531030 366.281296 -0.951382 -1.167478 31.952546 0.316186 -0.073973 -31.983160 0.047556 0.044475 -0.026982 1.671927 -1.277378 -1.204463 0.000000 0.000000 0.000000 0.313226 18.938773 -1.389816 13.756821 26.257791 -5.564395 116.167602 -56.582998 50.587589 -136.925306 51.781400 98.880531 0.000000 0.000000 0.000000 0.000000 0.000000 0.000000 -4.285185 4.956283 2.598433 -31.678138 -2.491495 3.496462 -8.543620 -42.654903 1.825704 -13.864197 53.480974 2.869638 0.000000 0.000000 0.000000 0.000000 0.000000 0.000000 -19.603056 8.107955 -31.815900 -7.628580 -2.254601 -4.407204 25.128082 11.975414 4.048920 0.000000 0.000000 0.000000 6.786176 -1.289183 -32.581951 7.783505 0.547395 3.446353 -20.005501 61.006733 -22.696653 0.000000 0.000000 0.000000
17.554163 76.606458 366.975886 0.186334 -0.191082 31.027957 -0.061179 0.259787 -31.027508 -0.000000 0.000000 0.000000 2.070936 -1.932069 -1.336541 0.000000 0.000000 0.000000 1.658825 22.651291 -2.216004 17.047009 23.552173 -6.856738 149.244728 -58.532124 102.388038 -173.300239 52.915959 146.017866 0.000000 0.000000 0.000000 0.000000 0.000000 0.000000 -2.771857 4.402403 2.156045 -36.839244 -2.287589 3.904857 -6.864693 -35.181582 -0.884768 -10.297777 41.432133 0.225800 0.000000 0.000000 0.000000 0.000000 0.000000 0.000000 -21.107140 7.933405 -30.880136 -8.062589 -3.383662 -5.195744 24.624895 16.057760 3.194120 0.000000 0.000000 0.000000 7.635009 -1.546226 -31.702384 7.648573 0.032958 4.143013 -21.641466 60.514487 -23.313781 0.000000 0.000000 0.000000
14.657646 75.594829 367.672747 1.430644 0.855955 29.834098 0.375660 -0.032000 -29.786496 0.012467 0.060002 0.079991 1.140441 -2.405647 -1.425358 0.000000 0.000000 0.000000 0.975848 23.349762 -2.739976 19.683514 22.925596 -8.029405 155.970242 -63.352293 131.874520 165.286748 49.152666 -178.586785 0.000000 0.000000 0.000000 0.000000 0.000000 0.000000 -3.669082 3.579003 1.848576 -39.849088 -0.900232 4.173101 -6.138147 -34.484197 -2.269725 -7.614424 35.498885 -1.246612 0.000000 0.000000 0.000000 0.000000 0.000000 0.000000 -22.682150 7.765970 -29.683201 -7.859485 -4.700374 -6.027707 24.633024 20.397198 1.459501 0.000000 0.000000 0.000000 7.702702 -1.885228 -30.571098 8.231549 0.196512 4.839062 -19.889782 60.257218 -26.382393 0.000000 0.000000 0.000000
11.548182 74.796944 368.558169 3.206439 2.082461 28.844309 0.177144 0.021531 -28.794748 -0.110946 0.035499 0.139961 0.332084 -3.030484 -1.474180 0.000000 0.000000 0.000000 -0.447090 21.197767 -2.738198 21.920797 25.067764 -9.670047 122.553601 -72.282015 102.620792 166.766376 69.565564 -174.580041 0.000000 0.000000 0.000000 0.000000 0.000000 0.000000 -2.384158 2.768897 1.234606 -44.486606 -0.283659 4.570512 -2.299191 -29.214494 -3.299603 -6.533031 23.946804 -1.977775 0.000000 0.000000 0.000000 0.000000 0.000000 0.000000 -23.900611 7.724391 -28.662927 -7.252707 -6.303122 -6.805239 26.099979 20.724522 -0.278423 0.000000 0.000000 0.000000 7.404138 -2.215868 -29.695076 8.637190 0.528959 5.575145 -16.246984 58.230438 -29.918939 0.000000 0.000000 0.000000
8.296468 74.179823 369.599092 5.526496 3.405530 28.166606 0.226182 0.010836 -28.145544 -0.073664 0.053079 0.248296 -1.180080 -3.724870 -1.634111 0.000000 0.000000 0.000000 -2.675164 17.983403 -2.789938 25.794375 29.409457 -13.037212 47.786433 -77.288899 44.791643 93.059771 75.841082 -87.775293 0.000000 0.000000 0.000000 0.000000 0.000000 0.000000 -4.329352 2.567789 1.251075 -46.627583 -0.179939 3.863598 0.984478 -26.091759 -3.971939 -6.010286 14.790775 -2.054834 0.000000 0.000000 0.000000 0.000000 0.000000 0.000000 -25.222693 8.175938 -27.858365 -6.688438 -8.278303 -7.679063 26.160610 23.101649 -2.339575 0.000000 0.000000 0.000000 6.705622 -2.675478 -29.242829 8.613864 1.162188 6.294150 -12.813545 55.050854 -32.519515 0.000000 0.000000 0.000000
5.250630 73.822022 370.689441 7.673365 4.455497 27.630124 0.346431 -0.001100 -27.668309 -0.114161 0.033419 0.345233 -2.255802 -3.717857 -1.699814 0.000000 0.000000 0.000000 -4.804118 13.620817 -2.688527 28.319059 34.905688 -16.696047 -7.143237 -57.902768 6.270908 45.304604 47.086014 -24.909788 0.000000 0.000000 0.000000 0.000000 0.000000 0.000000 -5.556603 2.167777 1.011586 -47.530621 1.137001 3.416183 2.340415 -22.758605 -4.651083 -7.375010 7.021149 -1.241611 0.000000 0.000000 0.000000 0.000000 0.000000 0.000000 -25.230866 8.711541 -27.175611 -6.835498 -10.444255 -8.509124 25.307080 27.407178 -5.144832 0.000000 0.000000 0.000000 6.279145 -2.868472 -28.946889 8.038038 1.195749 6.848869 -10.310055 51.743321 -33.464274 0.000000 0.000000 0.000000
